<svg xmlns="http://www.w3.org/2000/svg" viewBox="0 0 320 320">
  <defs>
    <linearGradient id="bg" x1="34" x2="284" y1="34" y2="286" gradientUnits="userSpaceOnUse">
      <stop stop-color="#6417d8"/>
      <stop offset=".58" stop-color="#8b2cff"/>
      <stop offset="1" stop-color="#30a525"/>
    </linearGradient>
  </defs>
  <rect width="320" height="320" rx="36" fill="url(#bg)"/>
  <path d="M76 146c6-40 41-70 84-70s78 30 84 70H76Z" fill="#ffca3a"/>
  <path d="M86 146h148c17 0 31 14 31 31v4H55v-4c0-17 14-31 31-31Z" fill="#fff3d0"/>
  <path d="M66 185h188v30H66v-30Z" fill="#30a525"/>
  <path d="M70 211h180c9 0 16 7 16 16v3H54v-3c0-9 7-16 16-16Z" fill="#ff4d5a"/>
  <path d="M73 232h174c10 0 18 8 18 18s-8 18-18 18H73c-10 0-18-8-18-18s8-18 18-18Z" fill="#ffca3a"/>
  <circle cx="119" cy="112" r="6" fill="#fff"/>
  <circle cx="154" cy="99" r="6" fill="#fff"/>
  <circle cx="190" cy="114" r="6" fill="#fff"/>
  <path d="M96 54l-22-18M224 54l22-18" stroke="#fff" stroke-width="10" stroke-linecap="round" opacity=".7"/>
</svg>
