<svg xmlns="http://www.w3.org/2000/svg" viewBox="0 0 320 320">
  <defs>
    <linearGradient id="bg" x1="40" x2="282" y1="34" y2="286" gradientUnits="userSpaceOnUse">
      <stop stop-color="#23004c"/>
      <stop offset=".56" stop-color="#6417d8"/>
      <stop offset="1" stop-color="#0fa83f"/>
    </linearGradient>
  </defs>
  <rect width="320" height="320" rx="36" fill="url(#bg)"/>
  <path d="M72 104h176c17 0 30 13 30 30v96c0 17-13 30-30 30H72c-17 0-30-13-30-30v-96c0-17 13-30 30-30Z" fill="#fff"/>
  <path d="M72 104h176c17 0 30 13 30 30v18H42v-18c0-17 13-30 30-30Z" fill="#38d928"/>
  <path d="M84 104l28 48M139 104l28 48M194 104l28 48" stroke="#6417d8" stroke-width="13" stroke-linecap="round"/>
  <path d="M130 182l58 34-58 34v-68Z" fill="#6417d8"/>
  <path d="M82 70h156" stroke="#fff" stroke-width="14" stroke-linecap="round" opacity=".82"/>
  <circle cx="80" cy="230" r="8" fill="#efe5ff"/>
  <circle cx="240" cy="230" r="8" fill="#efe5ff"/>
</svg>
